<?xml version="1.0" encoding="utf-8"?>
<!-- Generator: Adobe Illustrator 24.0.1, SVG Export Plug-In . SVG Version: 6.00 Build 0)  -->
<svg version="1.1" id="Layer_1" xmlns="http://www.w3.org/2000/svg" xmlns:xlink="http://www.w3.org/1999/xlink" x="0px" y="0px"
	 viewBox="420 290 1140 410" style="enable-background:new 420 290 1140 410;" xml:space="preserve">
<style type="text/css">
	.st0{fill:#1D90A3;}
	.st1{opacity:0.4;}
	.st2{opacity:0.7;}
	.st3{fill:#FFFFFF;}
	.st4{fill:#14605C;}
	.st5{opacity:0.4;fill:#14605C;}
	.st6{opacity:0.7;fill:#14605C;}
</style>
<rect x="2368" y="1429" width="2000" height="1000"/>
<polygon class="st0" points="1824.78,-19.33 1825.17,-19.11 1824.78,-18.89 "/>
<g>
	<g>
		<path d="M3539.79-293.75l0.05,0.03l168.39-97.23L3539.79-293.75z M3370.73-586.32v0.32l23.84,13.77v-0.34L3370.73-586.32z
			 M3708.23-587.06l-168.39-97.22l-0.36,0.21l168.73,97.47l0.02-0.01l0.39-0.22L3708.23-587.06z M3608.32-528.79l-23.84,13.76
			l0.12,0.08l23.84-13.77L3608.32-528.79z M3471.14-528.38v0.39l23.88,13.79v-0.4L3471.14-528.38z"/>
		<polygon class="st1" points="3708.23,-488.97 3708.23,-390.95 3539.79,-293.75 3539.37,-294 3539.37,-321.53 3539.84,-321.26 
			3685.11,-405.13 3685.11,-450.67 3639.49,-424.39 3639.49,-449.29 		"/>
		<polygon class="st1" points="3608.54,-528.66 3608.54,-449.34 3539.84,-409.67 3539.37,-409.95 3539.37,-437.48 3539.84,-437.2 
			3584.7,-463.1 3584.7,-514.9 3584.59,-514.96 3608.43,-528.72 		"/>
		<polygon points="3608.32,-528.79 3584.47,-515.03 3539.84,-540.8 3495.02,-514.92 3495.02,-514.6 3471.14,-528.38 
			3471.14,-528.66 3539.84,-568.33 		"/>
		<polygon points="3708.21,-586.6 3684.77,-573.07 3539.84,-656.74 3394.57,-572.87 3394.57,-572.56 3370.73,-586.32 
			3370.73,-586.64 3539.48,-684.07 		"/>
		<polygon class="st2" points="3495.02,-435.55 3495.02,-347.13 3539.37,-321.53 3539.37,-294 3370.73,-391.36 3370.73,-586 
			3394.57,-572.23 3394.57,-405.13 3471.18,-360.9 3471.18,-449.32 3471.14,-449.34 3471.14,-527.99 3495.02,-514.2 
			3495.02,-463.08 3539.37,-437.48 3539.37,-409.95 		"/>
	</g>
	
		<text transform="matrix(1 0 0 1 3770.4773 -443.2031)" style="font-family:'OriyaSangamMN-Bold'; font-size:103.8441px; letter-spacing:15;">GENPROFI</text>
</g>
<g>
	<g>
		<g>
			<path class="st3" d="M2968.79,2113.25l0.05,0.03l168.39-97.22L2968.79,2113.25z M2799.73,1820.68v0.32l23.84,13.77v-0.34
				L2799.73,1820.68z M3137.23,1819.94l-168.39-97.22l-0.36,0.21l168.73,97.47l0.02-0.01l0.39-0.22L3137.23,1819.94z
				 M3037.32,1878.21l-23.84,13.76l0.12,0.08l23.84-13.77L3037.32,1878.21z M2900.14,1878.62v0.39l23.88,13.79v-0.4L2900.14,1878.62
				z"/>
		</g>
		<g class="st1">
			<polygon class="st3" points="3137.23,1918.03 3137.23,2016.05 2968.79,2113.25 2968.37,2113 2968.37,2085.47 2968.84,2085.74 
				3114.11,2001.87 3114.11,1956.33 3068.49,1982.61 3068.49,1957.71 			"/>
		</g>
		<g class="st1">
			<polygon class="st3" points="3037.54,1878.34 3037.54,1957.66 2968.84,1997.33 2968.37,1997.05 2968.37,1969.52 2968.84,1969.8 
				3013.7,1943.9 3013.7,1892.1 3013.59,1892.04 3037.43,1878.28 			"/>
		</g>
		<g>
			<polygon class="st3" points="3037.32,1878.21 3013.47,1891.97 2968.84,1866.2 2924.02,1892.08 2924.02,1892.4 2900.14,1878.62 
				2900.14,1878.34 2968.84,1838.67 			"/>
		</g>
		<g>
			<polygon class="st3" points="3137.21,1820.4 3113.77,1833.93 2968.84,1750.26 2823.57,1834.13 2823.57,1834.44 2799.73,1820.68 
				2799.73,1820.36 2968.48,1722.93 			"/>
		</g>
		<g class="st2">
			<polygon class="st3" points="2924.02,1971.45 2924.02,2059.87 2968.37,2085.47 2968.37,2113 2799.73,2015.64 2799.73,1821 
				2823.57,1834.77 2823.57,2001.87 2900.18,2046.1 2900.18,1957.68 2900.14,1957.66 2900.14,1879.01 2924.02,1892.8 
				2924.02,1943.92 2968.37,1969.52 2968.37,1997.05 			"/>
		</g>
	</g>
	<g>
		<path class="st3" d="M3220.7,1922.37c0,5.11,0.65,9.64,1.96,13.58c1.31,3.94,3.08,7.26,5.32,9.96c2.24,2.7,4.84,4.75,7.82,6.15
			c2.97,1.41,6.12,2.11,9.45,2.11c2.73,0,5.41-0.67,8.02-2.02c2.62-1.35,4.98-3.14,7.1-5.38c2.12-2.24,3.89-4.82,5.32-7.76
			c1.43-2.93,2.32-5.98,2.67-9.15h-24.49v-11.77h38.28v45.71h-10.52l-1.67-9.87c-1.58,1.66-3.34,3.22-5.26,4.67
			c-1.92,1.45-3.93,2.71-6.03,3.77c-2.1,1.07-4.28,1.92-6.54,2.56s-4.5,0.95-6.72,0.95c-5.94,0-11.3-1.1-16.08-3.3
			c-4.78-2.2-8.85-5.24-12.21-9.12c-3.37-3.88-5.96-8.48-7.76-13.79c-1.8-5.31-2.7-11.08-2.7-17.3c0-3.61,0.39-7.19,1.16-10.76
			c0.77-3.57,1.9-6.96,3.39-10.19c1.49-3.23,3.32-6.22,5.5-8.98c2.18-2.75,4.69-5.14,7.52-7.16c2.83-2.02,5.97-3.61,9.42-4.75
			s7.19-1.72,11.23-1.72c5.15,0,9.75,0.73,13.79,2.2c4.04,1.47,7.59,3.5,10.64,6.09c3.05,2.6,5.62,5.68,7.7,9.24
			s3.73,7.47,4.96,11.71h-14.56c-2.1-5.9-4.99-10.31-8.68-13.23c-3.69-2.91-8.3-4.37-13.85-4.37c-3.57,0-6.83,0.84-9.78,2.53
			s-5.5,3.98-7.64,6.89c-2.14,2.91-3.8,6.3-4.99,10.17C3221.29,1913.9,3220.7,1918.01,3220.7,1922.37z"/>
		<path class="st3" d="M3375.96,1880.88v11.83h-44.52v22.41h41.79V1927h-41.79v24.79h46.42v12.01h-60.45v-82.92H3375.96z"/>
		<path class="st3" d="M3427.02,1880.88l35.61,63.07v-63.07h14.03v82.92h-15.81l-35.78-63.66v63.66h-14.03v-82.92H3427.02z"/>
		<path class="st3" d="M3513.16,1880.88h32.81c4.28,0,8.06,0.73,11.35,2.2c3.29,1.47,6.05,3.38,8.29,5.74
			c2.24,2.36,3.94,5,5.11,7.94c1.17,2.93,1.75,5.88,1.75,8.86c0,3.13-0.58,6.19-1.75,9.18c-1.17,2.99-2.88,5.65-5.14,7.97
			c-2.26,2.32-5.03,4.18-8.32,5.59c-3.29,1.41-7.05,2.11-11.29,2.11h-18.78v33.35h-14.03V1880.88z M3527.18,1918.68H3543
			c2.89,0,5.32-0.35,7.28-1.04s3.55-1.63,4.76-2.82c1.21-1.19,2.08-2.59,2.62-4.19c0.54-1.61,0.8-3.34,0.8-5.2
			c0-1.82-0.34-3.52-1.01-5.08c-0.67-1.56-1.67-2.91-2.97-4.04c-1.31-1.13-2.92-2.01-4.84-2.64c-1.92-0.63-4.13-0.95-6.63-0.95
			h-15.81V1918.68z"/>
		<path class="st3" d="M3666.04,1905.19c0,3.65-0.94,7.06-2.82,10.25c-1.88,3.19-4.75,5.95-8.59,8.29c1.82,0.63,3.39,1.55,4.7,2.73
			s2.38,2.53,3.21,4.01c0.83,1.49,1.45,3.07,1.84,4.76c0.4,1.68,0.59,3.36,0.59,5.02v12.01c0,1.51,0.37,3.27,1.1,5.29
			c0.73,2.02,1.73,4.1,3,6.24h-15.34c-0.59-0.95-1.08-1.94-1.46-2.97c-0.38-1.03-0.65-2.04-0.83-3.03c-0.18-0.99-0.3-1.92-0.36-2.79
			s-0.09-1.64-0.09-2.32v-12.6c0-1.23-0.21-2.46-0.62-3.69c-0.42-1.23-1.08-2.33-1.99-3.3c-0.91-0.97-2.12-1.76-3.63-2.38
			c-1.51-0.61-3.33-0.92-5.47-0.92h-21.16v34h-14.03v-82.92h35.19c4.28,0,8.08,0.71,11.41,2.14c3.33,1.43,6.13,3.29,8.41,5.59
			c2.28,2.3,4,4.89,5.17,7.79C3665.46,1899.28,3666.04,1902.22,3666.04,1905.19z M3618.13,1918.03h21.16c1.7,0,3.32-0.31,4.84-0.92
			c1.52-0.61,2.87-1.47,4.04-2.56c1.17-1.09,2.09-2.41,2.76-3.95c0.67-1.54,1.01-3.25,1.01-5.11c0-1.82-0.32-3.52-0.95-5.08
			c-0.63-1.56-1.52-2.91-2.65-4.04c-1.13-1.13-2.47-2.02-4.01-2.67c-1.55-0.65-3.23-0.98-5.05-0.98h-21.16V1918.03z"/>
		<path class="st3" d="M3774.11,1922.13c0,6.42-0.85,12.31-2.56,17.68c-1.71,5.37-4.19,9.99-7.46,13.85
			c-3.27,3.86-7.28,6.87-12.04,9.01c-4.75,2.14-10.2,3.21-16.35,3.21s-11.58-1.08-16.32-3.24c-4.74-2.16-8.74-5.17-12.01-9.04
			c-3.27-3.86-5.75-8.48-7.43-13.85c-1.69-5.37-2.53-11.26-2.53-17.68c0-6.42,0.84-12.28,2.53-17.59c1.68-5.31,4.16-9.87,7.43-13.67
			c3.27-3.8,7.27-6.76,12.01-8.86c4.73-2.1,10.17-3.15,16.32-3.15s11.59,1.06,16.35,3.18c4.76,2.12,8.77,5.08,12.04,8.89
			c3.27,3.8,5.76,8.36,7.46,13.67C3773.26,1909.84,3774.11,1915.71,3774.11,1922.13z M3760.08,1922.07c0-5.03-0.63-9.51-1.9-13.43
			c-1.27-3.92-3-7.22-5.2-9.9s-4.78-4.72-7.73-6.12c-2.95-1.41-6.13-2.11-9.54-2.11c-3.45,0-6.65,0.7-9.6,2.11
			c-2.95,1.41-5.51,3.45-7.67,6.12s-3.86,5.97-5.11,9.9c-1.25,3.92-1.87,8.4-1.87,13.43s0.62,9.53,1.87,13.49s2.95,7.32,5.11,10.08
			c2.16,2.75,4.71,4.85,7.67,6.3c2.95,1.45,6.15,2.17,9.6,2.17c3.41,0,6.59-0.72,9.54-2.17c2.95-1.45,5.53-3.55,7.73-6.3
			c2.2-2.75,3.93-6.11,5.2-10.08S3760.08,1927.1,3760.08,1922.07z"/>
		<path class="st3" d="M3863.39,1880.88v11.83h-43.21v22.41h37.51V1927h-37.51v36.79h-14.03v-82.92H3863.39z"/>
		<path class="st3" d="M3910.12,1880.88v82.92h-14.03v-82.92H3910.12z"/>
	</g>
</g>
<g>
	<g>
		<g>
			<path d="M600.79,2113.25l0.05,0.03l168.39-97.22L600.79,2113.25z M431.73,1820.68v0.32l23.84,13.77v-0.34L431.73,1820.68z
				 M769.23,1819.94l-168.39-97.22l-0.36,0.21l168.73,97.47l0.02-0.01l0.39-0.22L769.23,1819.94z M669.32,1878.21l-23.84,13.76
				l0.12,0.08l23.84-13.77L669.32,1878.21z M532.14,1878.62v0.39l23.88,13.79v-0.4L532.14,1878.62z"/>
		</g>
		<g class="st1">
			<polygon points="769.23,1918.03 769.23,2016.05 600.79,2113.25 600.37,2113 600.37,2085.47 600.84,2085.74 746.11,2001.87 
				746.11,1956.33 700.49,1982.61 700.49,1957.71 			"/>
		</g>
		<g class="st1">
			<polygon points="669.54,1878.34 669.54,1957.66 600.84,1997.33 600.37,1997.05 600.37,1969.52 600.84,1969.8 645.7,1943.9 
				645.7,1892.1 645.59,1892.04 669.43,1878.28 			"/>
		</g>
		<g>
			<polygon points="669.32,1878.21 645.47,1891.97 600.84,1866.2 556.02,1892.08 556.02,1892.4 532.14,1878.62 532.14,1878.34 
				600.84,1838.67 			"/>
		</g>
		<g>
			<polygon points="769.21,1820.4 745.77,1833.93 600.84,1750.26 455.57,1834.13 455.57,1834.44 431.73,1820.68 431.73,1820.36 
				600.48,1722.93 			"/>
		</g>
		<g class="st2">
			<polygon points="556.02,1971.45 556.02,2059.87 600.37,2085.47 600.37,2113 431.73,2015.64 431.73,1821 455.57,1834.77 
				455.57,2001.87 532.18,2046.1 532.18,1957.68 532.14,1957.66 532.14,1879.01 556.02,1892.8 556.02,1943.92 600.37,1969.52 
				600.37,1997.05 			"/>
		</g>
	</g>
	<g>
		<path d="M852.7,1922.37c0,5.11,0.65,9.64,1.96,13.58c1.31,3.94,3.08,7.26,5.32,9.96c2.24,2.7,4.84,4.75,7.82,6.15
			c2.97,1.41,6.12,2.11,9.45,2.11c2.73,0,5.41-0.67,8.02-2.02c2.62-1.35,4.98-3.14,7.1-5.38c2.12-2.24,3.89-4.82,5.32-7.76
			c1.43-2.93,2.32-5.98,2.67-9.15h-24.49v-11.77h38.28v45.71h-10.52l-1.67-9.87c-1.58,1.66-3.34,3.22-5.26,4.67
			c-1.92,1.45-3.93,2.71-6.03,3.77c-2.1,1.07-4.28,1.92-6.54,2.56s-4.5,0.95-6.72,0.95c-5.94,0-11.3-1.1-16.08-3.3
			c-4.78-2.2-8.85-5.24-12.21-9.12c-3.37-3.88-5.96-8.48-7.76-13.79c-1.8-5.31-2.7-11.08-2.7-17.3c0-3.61,0.39-7.19,1.16-10.76
			c0.77-3.57,1.9-6.96,3.39-10.19c1.49-3.23,3.32-6.22,5.5-8.98c2.18-2.75,4.69-5.14,7.52-7.16c2.83-2.02,5.97-3.61,9.42-4.75
			s7.19-1.72,11.23-1.72c5.15,0,9.75,0.73,13.79,2.2c4.04,1.47,7.59,3.5,10.64,6.09c3.05,2.6,5.62,5.68,7.7,9.24
			s3.73,7.47,4.96,11.71h-14.56c-2.1-5.9-4.99-10.31-8.68-13.23c-3.69-2.91-8.3-4.37-13.85-4.37c-3.57,0-6.83,0.84-9.78,2.53
			s-5.5,3.98-7.64,6.89c-2.14,2.91-3.8,6.3-4.99,10.17C853.29,1913.9,852.7,1918.01,852.7,1922.37z"/>
		<path d="M1007.96,1880.88v11.83h-44.52v22.41h41.79V1927h-41.79v24.79h46.42v12.01h-60.45v-82.92H1007.96z"/>
		<path d="M1059.02,1880.88l35.61,63.07v-63.07h14.03v82.92h-15.81l-35.78-63.66v63.66h-14.03v-82.92H1059.02z"/>
		<path d="M1145.16,1880.88h32.81c4.28,0,8.06,0.73,11.35,2.2c3.29,1.47,6.05,3.38,8.29,5.74c2.24,2.36,3.94,5,5.11,7.94
			c1.17,2.93,1.75,5.88,1.75,8.86c0,3.13-0.58,6.19-1.75,9.18c-1.17,2.99-2.88,5.65-5.14,7.97c-2.26,2.32-5.03,4.18-8.32,5.59
			c-3.29,1.41-7.05,2.11-11.29,2.11h-18.78v33.35h-14.03V1880.88z M1159.18,1918.68H1175c2.89,0,5.32-0.35,7.28-1.04
			s3.55-1.63,4.76-2.82c1.21-1.19,2.08-2.59,2.62-4.19c0.54-1.61,0.8-3.34,0.8-5.2c0-1.82-0.34-3.52-1.01-5.08
			c-0.67-1.56-1.67-2.91-2.97-4.04c-1.31-1.13-2.92-2.01-4.84-2.64c-1.92-0.63-4.13-0.95-6.63-0.95h-15.81V1918.68z"/>
		<path d="M1298.04,1905.19c0,3.65-0.94,7.06-2.82,10.25c-1.88,3.19-4.75,5.95-8.59,8.29c1.82,0.63,3.39,1.55,4.7,2.73
			s2.38,2.53,3.21,4.01c0.83,1.49,1.45,3.07,1.84,4.76c0.4,1.68,0.59,3.36,0.59,5.02v12.01c0,1.51,0.37,3.27,1.1,5.29
			c0.73,2.02,1.73,4.1,3,6.24h-15.34c-0.59-0.95-1.08-1.94-1.46-2.97c-0.38-1.03-0.65-2.04-0.83-3.03c-0.18-0.99-0.3-1.92-0.36-2.79
			s-0.09-1.64-0.09-2.32v-12.6c0-1.23-0.21-2.46-0.62-3.69c-0.42-1.23-1.08-2.33-1.99-3.3c-0.91-0.97-2.12-1.76-3.63-2.38
			c-1.51-0.61-3.33-0.92-5.47-0.92h-21.16v34h-14.03v-82.92h35.19c4.28,0,8.08,0.71,11.41,2.14c3.33,1.43,6.13,3.29,8.41,5.59
			c2.28,2.3,4,4.89,5.17,7.79C1297.46,1899.28,1298.04,1902.22,1298.04,1905.19z M1250.13,1918.03h21.16c1.7,0,3.32-0.31,4.84-0.92
			c1.52-0.61,2.87-1.47,4.04-2.56c1.17-1.09,2.09-2.41,2.76-3.95c0.67-1.54,1.01-3.25,1.01-5.11c0-1.82-0.32-3.52-0.95-5.08
			c-0.63-1.56-1.52-2.91-2.65-4.04c-1.13-1.13-2.47-2.02-4.01-2.67c-1.55-0.65-3.23-0.98-5.05-0.98h-21.16V1918.03z"/>
		<path d="M1406.11,1922.13c0,6.42-0.85,12.31-2.56,17.68c-1.71,5.37-4.19,9.99-7.46,13.85c-3.27,3.86-7.28,6.87-12.04,9.01
			c-4.75,2.14-10.2,3.21-16.35,3.21s-11.58-1.08-16.32-3.24c-4.74-2.16-8.74-5.17-12.01-9.04c-3.27-3.86-5.75-8.48-7.43-13.85
			c-1.69-5.37-2.53-11.26-2.53-17.68c0-6.42,0.84-12.28,2.53-17.59c1.68-5.31,4.16-9.87,7.43-13.67c3.27-3.8,7.27-6.76,12.01-8.86
			c4.73-2.1,10.17-3.15,16.32-3.15s11.59,1.06,16.35,3.18c4.76,2.12,8.77,5.08,12.04,8.89c3.27,3.8,5.76,8.36,7.46,13.67
			C1405.26,1909.84,1406.11,1915.71,1406.11,1922.13z M1392.08,1922.07c0-5.03-0.63-9.51-1.9-13.43c-1.27-3.92-3-7.22-5.2-9.9
			s-4.78-4.72-7.73-6.12c-2.95-1.41-6.13-2.11-9.54-2.11c-3.45,0-6.65,0.7-9.6,2.11c-2.95,1.41-5.51,3.45-7.67,6.12
			s-3.86,5.97-5.11,9.9c-1.25,3.92-1.87,8.4-1.87,13.43s0.62,9.53,1.87,13.49s2.95,7.32,5.11,10.08c2.16,2.75,4.71,4.85,7.67,6.3
			c2.95,1.45,6.15,2.17,9.6,2.17c3.41,0,6.59-0.72,9.54-2.17c2.95-1.45,5.53-3.55,7.73-6.3c2.2-2.75,3.93-6.11,5.2-10.08
			S1392.08,1927.1,1392.08,1922.07z"/>
		<path d="M1495.39,1880.88v11.83h-43.21v22.41h37.51V1927h-37.51v36.79h-14.03v-82.92H1495.39z"/>
		<path d="M1542.12,1880.88v82.92h-14.03v-82.92H1542.12z"/>
	</g>
</g>
<rect x="2368" class="st4" width="2000" height="1000"/>
<g>
	<g>
		<g>
			<path class="st3" d="M2968.79,684.25l0.05,0.03l168.39-97.23L2968.79,684.25z M2799.73,391.68V392l23.84,13.77v-0.34
				L2799.73,391.68z M3137.23,390.94l-168.39-97.22l-0.36,0.21l168.73,97.47l0.02-0.01l0.39-0.22L3137.23,390.94z M3037.32,449.21
				l-23.84,13.76l0.12,0.08l23.84-13.77L3037.32,449.21z M2900.14,449.62v0.39l23.88,13.79v-0.4L2900.14,449.62z"/>
		</g>
		<g class="st1">
			<polygon class="st3" points="3137.23,489.03 3137.23,587.05 2968.79,684.25 2968.37,684 2968.37,656.47 2968.84,656.74 
				3114.11,572.87 3114.11,527.33 3068.49,553.61 3068.49,528.71 			"/>
		</g>
		<g class="st1">
			<polygon class="st3" points="3037.54,449.34 3037.54,528.66 2968.84,568.33 2968.37,568.05 2968.37,540.52 2968.84,540.8 
				3013.7,514.9 3013.7,463.1 3013.59,463.04 3037.43,449.28 			"/>
		</g>
		<g>
			<polygon class="st3" points="3037.32,449.21 3013.47,462.97 2968.84,437.2 2924.02,463.08 2924.02,463.4 2900.14,449.62 
				2900.14,449.34 2968.84,409.67 			"/>
		</g>
		<g>
			<polygon class="st3" points="3137.21,391.4 3113.77,404.93 2968.84,321.26 2823.57,405.13 2823.57,405.44 2799.73,391.68 
				2799.73,391.36 2968.48,293.93 			"/>
		</g>
		<g class="st2">
			<polygon class="st3" points="2924.02,542.45 2924.02,630.87 2968.37,656.47 2968.37,684 2799.73,586.64 2799.73,392 
				2823.57,405.77 2823.57,572.87 2900.18,617.1 2900.18,528.68 2900.14,528.66 2900.14,450.01 2924.02,463.8 2924.02,514.92 
				2968.37,540.52 2968.37,568.05 			"/>
		</g>
	</g>
	<g>
		<path class="st3" d="M3220.7,493.37c0,5.11,0.65,9.64,1.96,13.58c1.31,3.94,3.08,7.26,5.32,9.96c2.24,2.7,4.84,4.75,7.82,6.15
			c2.97,1.41,6.12,2.11,9.45,2.11c2.73,0,5.41-0.67,8.02-2.02c2.62-1.35,4.98-3.14,7.1-5.38c2.12-2.24,3.89-4.82,5.32-7.76
			c1.43-2.93,2.32-5.98,2.67-9.15h-24.49v-11.77h38.28v45.71h-10.52l-1.67-9.87c-1.58,1.66-3.34,3.22-5.26,4.67
			c-1.92,1.45-3.93,2.71-6.03,3.77c-2.1,1.07-4.28,1.92-6.54,2.56s-4.5,0.95-6.72,0.95c-5.94,0-11.3-1.1-16.08-3.3
			c-4.78-2.2-8.85-5.24-12.21-9.12c-3.37-3.88-5.96-8.48-7.76-13.79c-1.8-5.31-2.7-11.08-2.7-17.3c0-3.61,0.39-7.19,1.16-10.76
			c0.77-3.57,1.9-6.96,3.39-10.19c1.49-3.23,3.32-6.22,5.5-8.98c2.18-2.75,4.69-5.14,7.52-7.16c2.83-2.02,5.97-3.61,9.42-4.75
			s7.19-1.72,11.23-1.72c5.15,0,9.75,0.73,13.79,2.2c4.04,1.47,7.59,3.5,10.64,6.09c3.05,2.6,5.62,5.68,7.7,9.24
			s3.73,7.47,4.96,11.71h-14.56c-2.1-5.9-4.99-10.31-8.68-13.23c-3.69-2.91-8.3-4.37-13.85-4.37c-3.57,0-6.83,0.84-9.78,2.53
			s-5.5,3.98-7.64,6.89c-2.14,2.91-3.8,6.3-4.99,10.17C3221.29,484.9,3220.7,489.01,3220.7,493.37z"/>
		<path class="st3" d="M3375.96,451.88v11.83h-44.52v22.41h41.79V498h-41.79v24.79h46.42v12.01h-60.45v-82.92H3375.96z"/>
		<path class="st3" d="M3427.02,451.88l35.61,63.07v-63.07h14.03v82.92h-15.81l-35.78-63.66v63.66h-14.03v-82.92H3427.02z"/>
		<path class="st3" d="M3513.16,451.88h32.81c4.28,0,8.06,0.73,11.35,2.2c3.29,1.47,6.05,3.38,8.29,5.74c2.24,2.36,3.94,5,5.11,7.94
			c1.17,2.93,1.75,5.88,1.75,8.86c0,3.13-0.58,6.19-1.75,9.18c-1.17,2.99-2.88,5.65-5.14,7.97c-2.26,2.32-5.03,4.18-8.32,5.59
			c-3.29,1.41-7.05,2.11-11.29,2.11h-18.78v33.35h-14.03V451.88z M3527.18,489.68H3543c2.89,0,5.32-0.35,7.28-1.04
			s3.55-1.63,4.76-2.82c1.21-1.19,2.08-2.59,2.62-4.19c0.54-1.61,0.8-3.34,0.8-5.2c0-1.82-0.34-3.52-1.01-5.08
			c-0.67-1.56-1.67-2.91-2.97-4.04c-1.31-1.13-2.92-2.01-4.84-2.64c-1.92-0.63-4.13-0.95-6.63-0.95h-15.81V489.68z"/>
		<path class="st3" d="M3666.04,476.19c0,3.65-0.94,7.06-2.82,10.25c-1.88,3.19-4.75,5.95-8.59,8.29c1.82,0.63,3.39,1.55,4.7,2.73
			s2.38,2.53,3.21,4.01c0.83,1.49,1.45,3.07,1.84,4.76c0.4,1.68,0.59,3.36,0.59,5.02v12.01c0,1.51,0.37,3.27,1.1,5.29
			c0.73,2.02,1.73,4.1,3,6.24h-15.34c-0.59-0.95-1.08-1.94-1.46-2.97c-0.38-1.03-0.65-2.04-0.83-3.03c-0.18-0.99-0.3-1.92-0.36-2.79
			s-0.09-1.64-0.09-2.32v-12.6c0-1.23-0.21-2.46-0.62-3.69c-0.42-1.23-1.08-2.33-1.99-3.3c-0.91-0.97-2.12-1.76-3.63-2.38
			c-1.51-0.61-3.33-0.92-5.47-0.92h-21.16v34h-14.03v-82.92h35.19c4.28,0,8.08,0.71,11.41,2.14c3.33,1.43,6.13,3.29,8.41,5.59
			c2.28,2.3,4,4.89,5.17,7.79C3665.46,470.28,3666.04,473.22,3666.04,476.19z M3618.13,489.03h21.16c1.7,0,3.32-0.31,4.84-0.92
			c1.52-0.61,2.87-1.47,4.04-2.56c1.17-1.09,2.09-2.41,2.76-3.95c0.67-1.54,1.01-3.25,1.01-5.11c0-1.82-0.32-3.52-0.95-5.08
			c-0.63-1.56-1.52-2.91-2.65-4.04c-1.13-1.13-2.47-2.02-4.01-2.67c-1.55-0.65-3.23-0.98-5.05-0.98h-21.16V489.03z"/>
		<path class="st3" d="M3774.11,493.13c0,6.42-0.85,12.31-2.56,17.68c-1.71,5.37-4.19,9.99-7.46,13.85
			c-3.27,3.86-7.28,6.87-12.04,9.01c-4.75,2.14-10.2,3.21-16.35,3.21s-11.58-1.08-16.32-3.24c-4.74-2.16-8.74-5.17-12.01-9.04
			c-3.27-3.86-5.75-8.48-7.43-13.85c-1.69-5.37-2.53-11.26-2.53-17.68c0-6.42,0.84-12.28,2.53-17.59c1.68-5.31,4.16-9.87,7.43-13.67
			c3.27-3.8,7.27-6.76,12.01-8.86c4.73-2.1,10.17-3.15,16.32-3.15s11.59,1.06,16.35,3.18c4.76,2.12,8.77,5.08,12.04,8.89
			c3.27,3.8,5.76,8.36,7.46,13.67C3773.26,480.84,3774.11,486.71,3774.11,493.13z M3760.08,493.07c0-5.03-0.63-9.51-1.9-13.43
			c-1.27-3.92-3-7.22-5.2-9.9s-4.78-4.72-7.73-6.12c-2.95-1.41-6.13-2.11-9.54-2.11c-3.45,0-6.65,0.7-9.6,2.11
			c-2.95,1.41-5.51,3.45-7.67,6.12s-3.86,5.97-5.11,9.9c-1.25,3.92-1.87,8.4-1.87,13.43s0.62,9.53,1.87,13.49s2.95,7.32,5.11,10.08
			c2.16,2.75,4.71,4.85,7.67,6.3c2.95,1.45,6.15,2.17,9.6,2.17c3.41,0,6.59-0.72,9.54-2.17c2.95-1.45,5.53-3.55,7.73-6.3
			c2.2-2.75,3.93-6.11,5.2-10.08S3760.08,498.1,3760.08,493.07z"/>
		<path class="st3" d="M3863.39,451.88v11.83h-43.21v22.41h37.51V498h-37.51v36.79h-14.03v-82.92H3863.39z"/>
		<path class="st3" d="M3910.12,451.88v82.92h-14.03v-82.92H3910.12z"/>
	</g>
</g>
<g>
	<g>
		<g>
			<path class="st4" d="M600.79,684.25l0.05,0.03l168.39-97.23L600.79,684.25z M431.73,391.68V392l23.84,13.77v-0.34L431.73,391.68z
				 M769.23,390.94l-168.39-97.22l-0.36,0.21l168.73,97.47l0.02-0.01l0.39-0.22L769.23,390.94z M669.32,449.21l-23.84,13.76
				l0.12,0.08l23.84-13.77L669.32,449.21z M532.14,449.62v0.39l23.88,13.79v-0.4L532.14,449.62z"/>
		</g>
		<g class="st1">
			<polygon class="st4" points="769.23,489.03 769.23,587.05 600.79,684.25 600.37,684 600.37,656.47 600.84,656.74 746.11,572.87 
				746.11,527.33 700.49,553.61 700.49,528.71 			"/>
		</g>
		<g class="st1">
			<polygon class="st4" points="669.54,449.34 669.54,528.66 600.84,568.33 600.37,568.05 600.37,540.52 600.84,540.8 645.7,514.9 
				645.7,463.1 645.59,463.04 669.43,449.28 			"/>
		</g>
		<g>
			<polygon class="st4" points="669.32,449.21 645.47,462.97 600.84,437.2 556.02,463.08 556.02,463.4 532.14,449.62 532.14,449.34 
				600.84,409.67 			"/>
		</g>
		<g>
			<polygon class="st4" points="769.21,391.4 745.77,404.93 600.84,321.26 455.57,405.13 455.57,405.44 431.73,391.68 
				431.73,391.36 600.48,293.93 			"/>
		</g>
		<g class="st2">
			<polygon class="st4" points="556.02,542.45 556.02,630.87 600.37,656.47 600.37,684 431.73,586.64 431.73,392 455.57,405.77 
				455.57,572.87 532.18,617.1 532.18,528.68 532.14,528.66 532.14,450.01 556.02,463.8 556.02,514.92 600.37,540.52 600.37,568.05 
							"/>
		</g>
	</g>
	<g>
		<path class="st4" d="M852.7,493.37c0,5.11,0.65,9.64,1.96,13.58c1.31,3.94,3.08,7.26,5.32,9.96c2.24,2.7,4.84,4.75,7.82,6.15
			c2.97,1.41,6.12,2.11,9.45,2.11c2.73,0,5.41-0.67,8.02-2.02c2.62-1.35,4.98-3.14,7.1-5.38c2.12-2.24,3.89-4.82,5.32-7.76
			c1.43-2.93,2.32-5.98,2.67-9.15h-24.49v-11.77h38.28v45.71h-10.52l-1.67-9.87c-1.58,1.66-3.34,3.22-5.26,4.67
			c-1.92,1.45-3.93,2.71-6.03,3.77c-2.1,1.07-4.28,1.92-6.54,2.56s-4.5,0.95-6.72,0.95c-5.94,0-11.3-1.1-16.08-3.3
			c-4.78-2.2-8.85-5.24-12.21-9.12c-3.37-3.88-5.96-8.48-7.76-13.79c-1.8-5.31-2.7-11.08-2.7-17.3c0-3.61,0.39-7.19,1.16-10.76
			c0.77-3.57,1.9-6.96,3.39-10.19c1.49-3.23,3.32-6.22,5.5-8.98c2.18-2.75,4.69-5.14,7.52-7.16c2.83-2.02,5.97-3.61,9.42-4.75
			s7.19-1.72,11.23-1.72c5.15,0,9.75,0.73,13.79,2.2c4.04,1.47,7.59,3.5,10.64,6.09c3.05,2.6,5.62,5.68,7.7,9.24
			s3.73,7.47,4.96,11.71h-14.56c-2.1-5.9-4.99-10.31-8.68-13.23c-3.69-2.91-8.3-4.37-13.85-4.37c-3.57,0-6.83,0.84-9.78,2.53
			s-5.5,3.98-7.64,6.89c-2.14,2.91-3.8,6.3-4.99,10.17C853.29,484.9,852.7,489.01,852.7,493.37z"/>
		<path class="st4" d="M1007.96,451.88v11.83h-44.52v22.41h41.79V498h-41.79v24.79h46.42v12.01h-60.45v-82.92H1007.96z"/>
		<path class="st4" d="M1059.02,451.88l35.61,63.07v-63.07h14.03v82.92h-15.81l-35.78-63.66v63.66h-14.03v-82.92H1059.02z"/>
		<path class="st4" d="M1145.16,451.88h32.81c4.28,0,8.06,0.73,11.35,2.2c3.29,1.47,6.05,3.38,8.29,5.74c2.24,2.36,3.94,5,5.11,7.94
			c1.17,2.93,1.75,5.88,1.75,8.86c0,3.13-0.58,6.19-1.75,9.18c-1.17,2.99-2.88,5.65-5.14,7.97c-2.26,2.32-5.03,4.18-8.32,5.59
			c-3.29,1.41-7.05,2.11-11.29,2.11h-18.78v33.35h-14.03V451.88z M1159.18,489.68H1175c2.89,0,5.32-0.35,7.28-1.04
			s3.55-1.63,4.76-2.82c1.21-1.19,2.08-2.59,2.62-4.19c0.54-1.61,0.8-3.34,0.8-5.2c0-1.82-0.34-3.52-1.01-5.08
			c-0.67-1.56-1.67-2.91-2.97-4.04c-1.31-1.13-2.92-2.01-4.84-2.64c-1.92-0.63-4.13-0.95-6.63-0.95h-15.81V489.68z"/>
		<path class="st4" d="M1298.04,476.19c0,3.65-0.94,7.06-2.82,10.25c-1.88,3.19-4.75,5.95-8.59,8.29c1.82,0.63,3.39,1.55,4.7,2.73
			s2.38,2.53,3.21,4.01c0.83,1.49,1.45,3.07,1.84,4.76c0.4,1.68,0.59,3.36,0.59,5.02v12.01c0,1.51,0.37,3.27,1.1,5.29
			c0.73,2.02,1.73,4.1,3,6.24h-15.34c-0.59-0.95-1.08-1.94-1.46-2.97c-0.38-1.03-0.65-2.04-0.83-3.03c-0.18-0.99-0.3-1.92-0.36-2.79
			s-0.09-1.64-0.09-2.32v-12.6c0-1.23-0.21-2.46-0.62-3.69c-0.42-1.23-1.08-2.33-1.99-3.3c-0.91-0.97-2.12-1.76-3.63-2.38
			c-1.51-0.61-3.33-0.92-5.47-0.92h-21.16v34h-14.03v-82.92h35.19c4.28,0,8.08,0.71,11.41,2.14c3.33,1.43,6.13,3.29,8.41,5.59
			c2.28,2.3,4,4.89,5.17,7.79C1297.46,470.28,1298.04,473.22,1298.04,476.19z M1250.13,489.03h21.16c1.7,0,3.32-0.31,4.84-0.92
			c1.52-0.61,2.87-1.47,4.04-2.56c1.17-1.09,2.09-2.41,2.76-3.95c0.67-1.54,1.01-3.25,1.01-5.11c0-1.82-0.32-3.52-0.95-5.08
			c-0.63-1.56-1.52-2.91-2.65-4.04c-1.13-1.13-2.47-2.02-4.01-2.67c-1.55-0.65-3.23-0.98-5.05-0.98h-21.16V489.03z"/>
		<path class="st4" d="M1406.11,493.13c0,6.42-0.85,12.31-2.56,17.68c-1.71,5.37-4.19,9.99-7.46,13.85
			c-3.27,3.86-7.28,6.87-12.04,9.01c-4.75,2.14-10.2,3.21-16.35,3.21s-11.58-1.08-16.32-3.24c-4.74-2.16-8.74-5.17-12.01-9.04
			c-3.27-3.86-5.75-8.48-7.43-13.85c-1.69-5.37-2.53-11.26-2.53-17.68c0-6.42,0.84-12.28,2.53-17.59c1.68-5.31,4.16-9.87,7.43-13.67
			c3.27-3.8,7.27-6.76,12.01-8.86c4.73-2.1,10.17-3.15,16.32-3.15s11.59,1.06,16.35,3.18c4.76,2.12,8.77,5.08,12.04,8.89
			c3.27,3.8,5.76,8.36,7.46,13.67C1405.26,480.84,1406.11,486.71,1406.11,493.13z M1392.08,493.07c0-5.03-0.63-9.51-1.9-13.43
			c-1.27-3.92-3-7.22-5.2-9.9s-4.78-4.72-7.73-6.12c-2.95-1.41-6.13-2.11-9.54-2.11c-3.45,0-6.65,0.7-9.6,2.11
			c-2.95,1.41-5.51,3.45-7.67,6.12s-3.86,5.97-5.11,9.9c-1.25,3.92-1.87,8.4-1.87,13.43s0.62,9.53,1.87,13.49s2.95,7.32,5.11,10.08
			c2.16,2.75,4.71,4.85,7.67,6.3c2.95,1.45,6.15,2.17,9.6,2.17c3.41,0,6.59-0.72,9.54-2.17c2.95-1.45,5.53-3.55,7.73-6.3
			c2.2-2.75,3.93-6.11,5.2-10.08S1392.08,498.1,1392.08,493.07z"/>
		<path class="st4" d="M1495.39,451.88v11.83h-43.21v22.41h37.51V498h-37.51v36.79h-14.03v-82.92H1495.39z"/>
		<path class="st4" d="M1542.12,451.88v82.92h-14.03v-82.92H1542.12z"/>
	</g>
</g>
<g>
	<g>
		<path class="st4" d="M600.79-1277.75l0.05,0.03l168.39-97.23L600.79-1277.75z M431.73-1570.32v0.32l23.84,13.77v-0.34
			L431.73-1570.32z M769.23-1571.06l-168.39-97.22l-0.36,0.21l168.73,97.47l0.02-0.01l0.39-0.22L769.23-1571.06z M669.32-1512.79
			l-23.84,13.76l0.12,0.08l23.84-13.77L669.32-1512.79z M532.14-1512.38v0.39l23.88,13.79v-0.4L532.14-1512.38z"/>
		<polygon class="st5" points="769.23,-1472.97 769.23,-1374.95 600.79,-1277.75 600.37,-1278 600.37,-1305.53 600.84,-1305.26 
			746.11,-1389.13 746.11,-1434.67 700.49,-1408.39 700.49,-1433.29 		"/>
		<polygon class="st5" points="669.54,-1512.66 669.54,-1433.34 600.84,-1393.67 600.37,-1393.95 600.37,-1421.48 600.84,-1421.2 
			645.7,-1447.1 645.7,-1498.9 645.59,-1498.96 669.43,-1512.72 		"/>
		<polygon class="st4" points="669.32,-1512.79 645.47,-1499.03 600.84,-1524.8 556.02,-1498.92 556.02,-1498.6 532.14,-1512.38 
			532.14,-1512.66 600.84,-1552.33 		"/>
		<polygon class="st4" points="769.21,-1570.6 745.77,-1557.07 600.84,-1640.74 455.57,-1556.87 455.57,-1556.56 431.73,-1570.32 
			431.73,-1570.64 600.48,-1668.07 		"/>
		<polygon class="st6" points="556.02,-1419.55 556.02,-1331.13 600.37,-1305.53 600.37,-1278 431.73,-1375.36 431.73,-1570 
			455.57,-1556.23 455.57,-1389.13 532.18,-1344.9 532.18,-1433.32 532.14,-1433.34 532.14,-1511.99 556.02,-1498.2 
			556.02,-1447.08 600.37,-1421.48 600.37,-1393.95 		"/>
	</g>
	
		<text transform="matrix(1 0 0 1 831.4773 -1427.2031)" class="st4" style="font-family:'OriyaSangamMN-Bold'; font-size:103.8441px; letter-spacing:15;">GENPROFI</text>
</g>
<g>
	<g>
		<path d="M3044.94,1252.27c1.93,0,1.93-3,0-3C3043.01,1249.27,3043.01,1252.27,3044.94,1252.27L3044.94,1252.27z"/>
	</g>
</g>
</svg>
